# xmcd
# Copyright (C) 1995-1998 Ti Kan
#
# Track frame offsets:
#       150
#       20577
#       37416
#       59521
#       77264
#       100438
#
# Disc length: 1612 seconds
#
# Revision: 0
# Processed by: cddbd v1.5.2PL0 Copyright (c) Steve Scherf et al.
# Submitted via: CD-Import v1.0
#
DISCID=4b064a06
DTITLE=You&i - We See Through The Night
DYEAR=2009
DGENRE=
TTITLE0=Before We Died
TTITLE1=Questions
TTITLE2=Lonely Grave
TTITLE3=Motelroom
TTITLE4=Behind Your Steps
TTITLE5=Memory
EXTD=
EXTT0=
EXTT1=
EXTT2=
EXTT3=
EXTT4=
EXTT5=
PLAYORDER=
